<svg width="57" height="57" viewBox="0 0 57 57" fill="none" xmlns="http://www.w3.org/2000/svg">
    <path fill-rule="evenodd" clip-rule="evenodd" d="M52.6704 27.0636C54.783 27.0636 56.4999 25.3467 56.4999 23.2341V4.50803C56.4999 2.39544 54.783 0.678558 52.6704 0.678558H33.9443C31.8317 0.678558 30.1148 2.39544 30.1148 4.50803V23.2341C30.1148 25.3467 31.8317 27.0636 33.9443 27.0636H52.6704ZM47.3151 10.0405C46.2428 9.01929 44.8961 8.50869 43.2814 8.50869C41.6666 8.50869 40.3263 9.01929 39.2668 10.0405C38.2137 11.0617 37.684 12.3509 37.684 13.9146C37.684 15.4337 38.2137 16.7038 39.2604 17.7122C40.3135 18.7206 41.6219 19.2248 43.1984 19.2248C44.8451 19.2248 46.2109 18.7206 47.2959 17.7122C48.3809 16.6974 48.9235 15.4209 48.9235 13.8827C48.9235 12.3445 48.3873 11.0617 47.3151 10.0405ZM40.3901 11.0553C41.1624 10.3085 42.1453 9.93198 43.3388 9.93198C44.4749 9.93198 45.4323 10.3085 46.2109 11.0681C46.9896 11.8276 47.3789 12.7594 47.3789 13.8636C47.3789 15.006 46.9896 15.9506 46.2109 16.7165C45.4323 17.476 44.4621 17.859 43.2941 17.859C42.1325 17.859 41.1688 17.4824 40.3965 16.7357C39.6242 15.9825 39.2349 15.0507 39.2349 13.921C39.2349 12.7594 39.6178 11.802 40.3901 11.0553Z" fill="white"/>
    <path fill-rule="evenodd" clip-rule="evenodd" d="M23.0556 56.3214C25.1682 56.3214 26.885 54.6045 26.885 52.4919V33.7658C26.885 31.6532 25.1682 29.9363 23.0556 29.9363H4.32947C2.21688 29.9363 0.5 31.6532 0.5 33.7658V52.4919C0.5 54.6045 2.21688 56.3214 4.32947 56.3214H23.0556ZM9.4673 38.3857V47.87C9.4673 48.087 9.64601 48.3487 9.95875 48.3423C10.297 48.3359 12.7734 48.3423 12.7734 48.3423C13.6989 48.3423 14.3243 48.3167 14.6562 48.2657C14.9881 48.2082 15.3455 48.1061 15.7413 47.9529C16.4178 47.6977 17.005 47.3211 17.5156 46.8233C18.0198 46.3382 18.4027 45.7765 18.6708 45.1383C18.9389 44.5 19.0729 43.8299 19.0729 43.1342C19.0729 42.1577 18.8304 41.2578 18.3389 40.428C17.8538 39.5983 17.1965 38.9728 16.3667 38.5452C15.537 38.1176 14.4137 37.907 12.9904 37.907H9.96513C9.67792 37.907 9.4673 38.0921 9.4673 38.3857ZM10.9608 39.2409H12.8309C13.5521 39.2409 14.069 39.2728 14.3882 39.3239C14.7137 39.3813 15.0519 39.4898 15.4157 39.6621C15.7795 39.8345 16.0987 40.0515 16.3795 40.3132C17.139 41.0216 17.5156 41.9343 17.5156 43.0576C17.5156 44.2001 17.1518 45.1447 16.4114 45.8914C16.1816 46.1212 15.9263 46.3127 15.6519 46.4722C15.3775 46.6318 15.0328 46.7594 14.6179 46.8615C14.2031 46.9637 13.6223 47.0147 12.8755 47.0147H10.9608V39.2409Z" fill="white"/>
    <path fill-rule="evenodd" clip-rule="evenodd" d="M52.6704 56.3214C54.783 56.3214 56.4999 54.6045 56.4999 52.4919V33.7658C56.4999 31.6532 54.783 29.9363 52.6704 29.9363H33.9443C31.8317 29.9363 30.1148 31.6532 30.1148 33.7658V52.4919C30.1148 54.6045 31.8317 56.3214 33.9443 56.3214H52.6704ZM41.7693 47.0157H45.6753C46.0455 47.0157 46.3455 47.3157 46.3455 47.6859C46.3455 48.056 46.0455 48.356 45.6753 48.356L45.5895 48.3559C45.0352 48.3549 41.9449 48.3496 40.7481 48.3496C40.4991 48.3496 40.2758 48.139 40.2758 47.871V38.3802C40.2758 38.1313 40.4672 37.9079 40.7481 37.9079C41.9206 37.9079 44.9041 37.9027 45.4441 37.9017C45.4978 37.9016 45.5274 37.9016 45.5285 37.9016C45.8987 37.9016 46.1987 38.2015 46.1987 38.5717C46.1987 38.9419 45.8987 39.2419 45.5285 39.2419H45.5157H41.7693V42.4267L45.3881 42.4203C45.7583 42.4203 46.0583 42.7203 46.0583 43.0905C46.0583 43.4543 45.7647 43.7543 45.4009 43.7607L41.7693 43.767V47.0157Z" fill="white"/>
    <path fill-rule="evenodd" clip-rule="evenodd" d="M23.0557 27.0636C25.1683 27.0636 26.8852 25.3467 26.8852 23.2341V4.50803C26.8852 2.39544 25.1683 0.678558 23.0557 0.678558H4.32962C2.21703 0.678558 0.500153 2.39544 0.500153 4.50803V23.2341C0.500153 25.3467 2.21703 27.0636 4.32962 27.0636H23.0557ZM17.1141 17.2271C17.1141 17.2271 17.2992 17.1697 17.4013 17.1697C17.797 17.1697 18.1161 17.4888 18.1098 17.8717C18.1098 18.159 17.9311 18.4334 17.6438 18.5419C16.6609 18.9823 15.5376 19.2121 14.3058 19.2121C13.1378 19.2121 12.1486 18.9759 11.338 18.51C10.5274 18.0377 9.88279 17.3931 9.41049 16.5697C8.93818 15.7528 8.70203 14.8592 8.70203 13.9019C8.70203 12.3828 9.24454 11.1063 10.3296 10.066C11.4146 9.02567 12.7549 8.50869 14.3441 8.50869C15.3142 8.50869 16.3865 8.73208 17.5481 9.18523C17.746 9.26182 18.0013 9.54265 18.0013 9.84262C18.0013 10.232 17.6821 10.5511 17.2928 10.5511C17.1843 10.5511 17.0694 10.5128 16.9737 10.4681C16.1057 10.1043 15.2568 9.93198 14.4143 9.93198C13.2208 9.93198 12.2251 10.3149 11.4337 11.0681C10.6423 11.8276 10.2466 12.7722 10.2466 13.9082C10.2466 15.0571 10.6359 15.9953 11.4146 16.7357C12.1932 17.4697 13.1889 17.8398 14.4016 17.8398C15.3206 17.8398 16.2269 17.6356 17.1141 17.2271Z" fill="white"/>
</svg>
