<svg width="56" height="56" viewBox="0 0 56 56" fill="none" xmlns="http://www.w3.org/2000/svg">
<path fill-rule="evenodd" clip-rule="evenodd" d="M21.397 25.5937C18.232 25.5937 15.7824 28.1766 15.7824 31.2537C15.7824 31.3129 15.7833 31.3719 15.785 31.4305C15.7833 31.4899 15.7824 31.5495 15.7824 31.6094C15.7824 34.9317 18.4757 37.625 21.798 37.625H35.4334C38.7558 37.625 41.4491 34.9317 41.4491 31.6094C41.4491 31.5495 41.4482 31.4899 41.4464 31.4305C41.4482 31.3719 41.4491 31.3129 41.4491 31.2537C41.4491 28.1766 38.9995 25.5937 35.8345 25.5937H21.397ZM23.0011 31.2386C23.0011 30.3306 22.2882 29.6042 21.397 29.6042C20.5058 29.6042 19.7928 30.3306 19.7928 31.2386C19.7928 32.1466 20.5058 32.8125 21.397 32.8125C22.2882 32.8125 23.0011 32.1466 23.0011 31.2386ZM28.6001 34.4167C30.1792 34.4167 31.4074 33.2887 31.4074 32.0104H25.7928C25.7928 33.2887 27.1087 34.4167 28.6001 34.4167ZM37.4386 31.2386C37.4386 30.3306 36.7257 29.6042 35.8345 29.6042C34.9433 29.6042 34.2303 30.3306 34.2303 31.2386C34.2303 32.1466 34.9433 32.8125 35.8345 32.8125C36.7257 32.8125 37.4386 32.1466 37.4386 31.2386Z" fill="#292F36"/>
<path fill-rule="evenodd" clip-rule="evenodd" d="M25.4074 5.54165C25.4074 3.76973 26.8438 2.33331 28.6157 2.33331C30.3876 2.33331 31.8241 3.76973 31.8241 5.54165C31.8241 6.72918 31.1789 7.76603 30.2199 8.32076V10.0055C33.9149 10.2187 37.5775 11.1734 40.4782 12.9385C43.8398 14.984 46.2616 18.1927 46.2616 22.5449V29.6042C47.1438 29.6042 47.8657 30.326 47.8657 31.2083C47.8657 32.0906 47.1438 32.8125 46.2616 32.8125V42.4375C46.2616 45.9813 43.3887 48.8542 39.8449 48.8542H17.3866C13.8427 48.8542 10.9699 45.9813 10.9699 42.4375L10.9699 32.8125C10.0876 32.8125 9.36572 32.0906 9.36572 31.2083C9.36572 30.326 10.0876 29.6042 10.9699 29.6042L10.9699 22.5449C10.9699 18.1927 13.3916 14.984 16.7532 12.9385C19.654 11.1734 23.3165 10.2187 27.0116 10.0055V8.32076C26.0526 7.76603 25.4074 6.72918 25.4074 5.54165ZM39.8449 45.6458C41.6168 45.6458 43.0532 44.2094 43.0532 42.4375V23.1875H14.1782V42.4375C14.1782 44.2094 15.6146 45.6458 17.3866 45.6458H39.8449ZM42.61 19.9792C41.9647 18.2242 40.641 16.7931 38.8105 15.6793C36.1155 14.0394 32.4135 13.1677 28.6157 13.1677C24.8179 13.1677 21.116 14.0394 18.421 15.6793C16.5905 16.7931 15.2667 18.2242 14.6215 19.9792H42.61Z" fill="#292F36"/>
<path d="M28.6157 53.6667C26.2095 53.6667 20.5949 52.865 20.5949 50.4583H36.6366C36.6366 52.865 31.022 53.6667 28.6157 53.6667Z" fill="#292F36"/>
</svg>
